<svg xmlns="http://www.w3.org/2000/svg" version="1" viewBox="0 0 619 619">
  <path d="
    M299 62c-2.4.6-7.7 2.5-11.8 4.5-19 9-30.7 30.8-27.5 51.6 4.2 27 30 46.4 56.4
    42.3 27-4.2 46.4-30 42.3-56.4-4.4-28.2-31.5-47.4-59.2-42zm40.6 19.6c5.6 4.5
    7.6 8.8 7 15.6-.5 10.4-8.4 17.2-18.8 16.5-10.4-.6-17.2-8.5-16.5-19 .4-6.5
    3.7-11.6 9.7-15 5.3-2.8 13.8-2 18.6 2zM103 210.6c-37.5 10-50 56.6-22.5 84 17.5
    17.6 44.6 19.8 64.7 5.5 20-14.3 26.6-41.8
    15.2-64.3-3.3-6.4-14.2-17.3-21-21-10.5-5.5-25-7.2-36.3-4zm35.8 33.6c.2
    2-.2 2.8-2 3.3-2.8 1-5.2-1.5-4.3-4.4 1-3.3 6-2.4 6.3 1.2zM490.3 210.4c-17.5
    4.3-32 18.7-36.8 36.7-5.6 20.8 4.7 45 23.6 55.8 19 10.8 43.8 7.8 60-7 5-5
    10.8-14.4 13-21.6 3-9.3 2.7-22.6-.4-31.4-8.6-24.4-34.3-38.4-59.3-32.4zm36.2
    30.6c4 4.6-3 11.6-7.5 7.5-2.2-2-2.7-6.4-.8-8.3 2-2 6.3-1.4 8.3.8zM187.4 425c-30.3
    4.5-49.6 34-41.5 63.2 9.4 34.5 50.8 48 79.5 26 13.5-10 21-29.4
    18.5-46.4-4-27.4-30-46.8-56.6-42.8zm29.4 34.8c.4 2.8-2.4 4-4.5 2-1.4-1.4-1.4-2-.3-3.3
    1.8-2.2 4.4-1.5 4.8 1.3zM415.5 425c-8.5 1.4-19 6.7-26.3 13.5-11.4 10.5-17.7 28-15.4 42.8
    4 25.8 24.4 43.6 49.7 43.7 13.4 0 24.4-4.3 34.2-13.4 21-19.5 21.8-51.7
    1.7-72-11.3-11.6-27.6-17-44-14.5zm31 35c0 3-3.3 4-5 1.5-2-2.5-.7-4.7
    2.4-4.3 2 .2 2.5.8 2.5 2.8z"
  />
</svg>
