<svg xmlns="http://www.w3.org/2000/svg" viewBox="0 0 250 250">
  <defs>
    <clipPath id="a">
      <path d="M0 500h1024V0H0v500z" />
    </clipPath>
  </defs>
  <g clipPath="url(#a)" transform="matrix(.9367 0 0 -.9367 -115.732 362.92)">
    <path fill="#49629d" d="M375.7 120.6c8.2 0 14.7 6.5 14.7 14.7v237.4c0 8.2-6.5 14.7-14.7 14.7H138.3c-8.2 0-14.7-6.5-14.7-14.7V135.3c0-8.2 6.5-14.7 14.7-14.7h237.4z" />
    <path fill="#fff" d="M307.7 120.6V224h34.7l5.2 40.2h-40V290c0 11.6 3.3 19.5 20 19.5H349v36c-3.7.5-16.4 1.6-31 1.6-30.8 0-52-18.6-52-53V264h-34.7V224H266V120.5h41.7z" />
  </g>
</svg>
