<svg xmlns="http://www.w3.org/2000/svg" viewBox="0 0 256.3 250">
  <path fill="#1b1817" fillRule="evenodd" d="M128.2 0C57.4 0 0 57.4 0 128.2c0 56.6 36.7 104.6 87.6 121.6 6.5 1.2 8.8-2.8 8.8-6.2 0-3 0-11-.2-21.8-35.6 7.7-43-17.2-43-17.2-6-14.8-14.4-18.7-14.4-18.7-11.6-8 1-8 1-8 12.8 1 19.5 13.3 19.5 13.3 11.5 19.6 30 14 37.3 10.6 1.2-8.3 4.5-14 8.2-17.2-28.5-3.2-58.4-14.2-58.4-63.3 0-14 5-25.5 13.2-34.4C58.3 84 54 71 60.8 53.3c0 0 10.8-3.5 35.3 13 10.3-2.7 21.3-4.2 32.2-4.2 11 0 21.8 1.5 32 4.3 24.5-16.6 35.3-13 35.3-13 7 17.5 2.6 30.5 1.2 33.8 8.3 9 13.2 20.5 13.2 34.5 0 49.2-30 60-58.6 63.2 4.6 4 8.7 11.8 8.7 23.7v35.2c0 3.4 2.2 7.4 8.8 6.2 50.8-17 87.5-65 87.5-121.6C256.3 57.4 199 0 128.3 0" />
</svg>
