<svg xmlns="http://www.w3.org/2000/svg" viewBox="0 0 250 250">
  <path fill="#4285f4" d="M245 127.8c0-8.8-.8-17.3-2.3-25.5H125v48.3h67.3c-3 15.7-11.7 29-25 37.8v31.3h40.4c23.7-21.7 37.3-53.8 37.3-92z" />
  <path fill="#34a853" d="M125 250c33.8 0 62-11.2 82.7-30.3l-40.4-31.3c-11.2 7.5-25.5 12-42.3 12-32.6 0-60-22-70-51.7H13.4V181C34 222 76 250 125 250z" />
  <path fill="#fbbc05" d="M55 148.8c-2.4-7.6-4-15.6-4-23.8 0-8.2 1.6-16.3 4-23.8V69H13.4C4.8 85.6 0 104.7 0 125c0 20.2 4.8 39.3 13.3 56L55 148.8z" />
  <path fill="#ea4335" d="M125 49.7c18.4 0 34.8 6.3 47.8 18.7l35.8-35.8C187 12.4 158.6 0 125 0 76 0 34 28 13.3 69L55 101.2c10-29.6 37.4-51.6 70-51.6z" />
</svg>
