<svg xmlns="http://www.w3.org/2000/svg" viewBox="0 0 307.6 250">
  <path fill="#1da1f2" d="M96.7 250c116 0 179.6-96.2 179.6-179.6 0-2.7 0-5.4-.2-8 12.5-9 23.2-20.2 31.6-32.8-11.3 5-23.5 8.4-36.2 10 13-8 23-20.2 27.7-35-12 7.2-25.6 12.5-40 15.3-11.5-12.3-28-20-46-20-35 0-63 28.3-63 63 0 5 .4 10 1.5 14.5-52.5-2.6-99-27.8-130-66-5.5 9.4-8.6 20.2-8.6 31.8 0 22 11 41.2 28 52.5-10.4-.3-20-3.2-28.6-8v1c0 30.5 21.7 56 50.6 61.8-5.3 1.4-11 2.2-16.7 2.2-4 0-8-.4-11.8-1 8 25 31.3 43.2 59 43.7-21.7 17-49 27-78.4 27-5 0-10-.3-15-1 28 18 61 28.5 96.7 28.5" />
</svg>
