<?xml version="1.0" encoding="UTF-8" standalone="no"?>
<svg
   xmlns:dc="http://purl.org/dc/elements/1.1/"
   xmlns:cc="http://creativecommons.org/ns#"
   xmlns:rdf="http://www.w3.org/1999/02/22-rdf-syntax-ns#"
   xmlns:svg="http://www.w3.org/2000/svg"
   xmlns="http://www.w3.org/2000/svg"
   xmlns:sodipodi="http://sodipodi.sourceforge.net/DTD/sodipodi-0.dtd"
   xmlns:inkscape="http://www.inkscape.org/namespaces/inkscape"
   viewBox="0 0 307.61313 249.99696"
   height="250"
   width="307.61307"
   version="1.1"
   id="svg3336"
   inkscape:version="0.91 r13725"
   sodipodi:docname="twitter-logo.svg">
  <metadata
     id="metadata3346">
    <rdf:RDF>
      <cc:Work
         rdf:about="">
        <dc:format>image/svg+xml</dc:format>
        <dc:type
           rdf:resource="http://purl.org/dc/dcmitype/StillImage" />
        <dc:title></dc:title>
      </cc:Work>
    </rdf:RDF>
  </metadata>
  <defs
     id="defs3344" />
  <sodipodi:namedview
     pagecolor="#ffffff"
     bordercolor="#666666"
     borderopacity="1"
     objecttolerance="10"
     gridtolerance="10"
     guidetolerance="10"
     inkscape:pageopacity="0"
     inkscape:pageshadow="2"
     inkscape:window-width="1680"
     inkscape:window-height="987"
     id="namedview3342"
     showgrid="false"
     fit-margin-top="0"
     fit-margin-left="0"
     fit-margin-right="0"
     fit-margin-bottom="0"
     inkscape:zoom="1.9966906"
     inkscape:cx="155.19614"
     inkscape:cy="126.97429"
     inkscape:window-x="-8"
     inkscape:window-y="-8"
     inkscape:window-maximized="1"
     inkscape:current-layer="g3338" />
  <g
     transform="translate(-533.98386,-567.9293)"
     id="g3338">
    <path
       d="m 630.72428,817.92783 c 116.08633,0 179.56945,-96.17224 179.56945,-179.56942 0,-2.73164 -0.0557,-5.45087 -0.17817,-8.15784 12.32294,-8.9085 23.03353,-20.02556 31.48143,-32.68091 -11.30826,5.02642 -23.4774,8.41014 -36.24317,9.9359 13.03001,-7.8134 23.03351,-20.17317 27.75292,-34.90746 -12.19389,7.22894 -25.69775,12.48296 -40.07589,15.31955 -11.51675,-12.26719 -27.91293,-19.93986 -46.06808,-19.93986 -34.85275,0 -63.1156,28.26389 -63.1156,63.10322 0,4.95251 0.5537,9.76979 1.6365,14.39054 -52.45356,-2.63935 -98.9655,-27.75297 -130.09389,-65.93984 -5.42011,9.32672 -8.54544,20.16076 -8.54544,31.7209 0,21.89599 11.14205,41.22582 28.08532,52.53404 -10.35446,-0.31991 -20.08131,-3.16226 -28.58288,-7.89336 -0.009,0.26481 -0.009,0.52294 -0.009,0.80595 0,30.56478 21.75458,56.08397 50.63268,61.86659 -5.30328,1.44579 -10.88298,2.22101 -16.64187,2.22101 -4.06044,0 -8.01642,-0.39968 -11.86153,-1.13817 8.03478,25.07634 31.3338,43.32438 58.95672,43.83431 -21.60077,16.9309 -48.81181,27.01489 -78.38565,27.01489 -5.08795,0 -10.11426,-0.28939 -15.05427,-0.87363 27.93154,17.90327 61.09758,28.34959 96.7441,28.34959"
       id="path3340"
       inkscape:connector-curvature="0"
       style="fill:#1da1f2" />
  </g>
</svg>
